# xmcd CD database file
#
# Track frame offsets:
#	150
#	18436
#	39817
#	69730
#	98330
#	120852
#	147582
#	180130
#	213699
#	235735
#	264648
#
# Disc length: 4066 seconds
#
# Revision: 0
# Processed by: cddbd v1.5.1PL0 Copyright (c) Steve Scherf et al.
# Submitted via: CDex 1.50
#
DISCID=8a0fe00b
DTITLE=Yusef Lateef - Chnops, Gold and Soul
DYEAR=1997
DGENRE=Jazz
TTITLE0=CHNOPS
TTITLE1=Sound Chamber
TTITLE2=Anomaly
TTITLE3=Fancy Meeting
TTITLE4=Inordinate
TTITLE5=Factoring
TTITLE6=Bass Case
TTITLE7=Quotient
TTITLE8=Pensively
TTITLE9=Content of a Lunch Box
TTITLE10=Shadow of Leaves
EXTD=YEAR: 1997
EXTT0=
EXTT1=
EXTT2=
EXTT3=
EXTT4=
EXTT5=
EXTT6=
EXTT7=
EXTT8=
EXTT9=
EXTT10=
PLAYORDER=
